<svg id="a" height="512" viewBox="0 0 64 64" width="512" xmlns="http://www.w3.org/2000/svg"><path d="m56.01605 28.50057 2.01947.50488c1.38818-2.61908 2.0177-5.71692 2.22925-8.70593l-2.24872-1.79895 2.33472-.9339c-.0191-4.98633-.95599-9.0661-.95599-9.0661-4.67999 2.0592-8.02747 4.29364-10.37872 6.56549v2.43451l-1 1v3l-2.71613-1.35803c-3.78625 8.09949 2.09485 15.35803 2.09485 15.35803 4.65686-.25873 7.69781-2.19757 9.66138-4.9198l-1.0401-2.0802z" fill="#4aa5ff"/><path d="m47.39495 36.50057c-1.03029.30422-6.98647-8.31397-3.0011-16.78213.2217-.49955.87157-.72531 1.35365-.47079 0-.00001 1.26855.63475 1.26855.63475.04831-.5176-.17596-1.70887.29295-2.08886.00002 0 .70705-.70704.70705-.70704v-2.02051c0-.27148.11035-.53125.30566-.71973 2.60547-2.5166 6.19531-4.79199 10.6709-6.76074.55152-.25928 1.2554.09465 1.37694.69142.03907.17088.96192 4.24608.98145 9.28612.02462.78344-.782 1.00261-1.37012 1.22852.42013.3938 1.3985.87288 1.28121 1.57813-.25387 3.58593-1.04195 6.64843-2.34273 9.10351-.20215.37988-.62305.58203-1.03906.52051.22162.3607.24519.82339-.01271 1.17188-2.37625 3.29832-5.9206 5.10181-10.47264 5.33496zm-1.58789-14.98633c-2.27832 6.08203 1.00293 11.44727 2.0625 12.9502 3.42676-.30078 6.11719-1.64258 8.01367-3.99414l-.76172-1.52246c-.39673-.72863.34381-1.64547 1.13675-1.41697-.00003-.00003 1.23923.30954 1.23923.30954.9082-1.96582 1.48828-4.34473 1.72852-7.09082l-1.83496-1.46777c-.27734-.22266-.41602-.57617-.36426-.92773.05176-.35254.28711-.65039.61816-.78223l1.69727-.67871c-.06152-2.94629-.43457-5.52148-.68652-6.95898-3.55762 1.66895-6.45801 3.53516-8.63965 5.56152v2.00488c0 .26562-.10547.51953-.29297.70703l-.70703.70703v2.58594c.02191.72103-.81376 1.23533-1.44728.89451.00001.00003-1.7617-.88083-1.7617-.88083z" fill="#21257c"/><path d="m7.36195 50.54935c-.72407-7.82431 4.99162-14.77337 12.99645-14.77385-.00014-.00004 3.54735-.00004 3.54735-.00004 8.00407.00022 13.72582 6.94904 13.00399 14.7739h-29.54779z" fill="#4aa5ff"/><path d="m36.9096 51.5494h-29.54785c-.55273 0-1-.44727-1-1-.72421-8.41232 5.41728-15.75599 13.99621-15.77439-.00011-.00002 3.54774-.00002 3.54774-.00002 7.71973 0 14.00195 6.28027 14.00391 14v1.77441c0 .55273-.44727 1-1 1zm-28.54785-2h27.54785c.38873-6.87711-5.08364-12.79822-12.00396-12.77438.00005-.00003-3.5478-.00003-3.5478-.00003-6.76894-.1492-12.50449 6.05523-11.99609 12.77441z" fill="#21257c"/><g fill="#e6f3ff"><path d="m23.83808 36.45537 2.70743 7.21983-4.52946 4.82537-4.49531-4.82537 2.70743-7.21983z"/><path d="m22.01605 49.50057c-.27701-.00042-.54254-.11574-.73145-.31836 0 0-4.49512-4.8252-4.49512-4.8252-.25879-.27734-.33789-.67773-.20508-1.0332l2.70703-7.21973c.14648-.38965.51953-.64844.93652-.64844h3.61035c.41699 0 .79004.25879.93652.64844l2.70703 7.21973c.13379.35742.05273.75879-.20703 1.03613l-4.5293 4.8252c-.18945.20117-.45312.31543-.72949.31543zm-3.3418-6.05371 3.34473 3.58984 3.37207-3.59277-2.24609-5.98828h-2.22363l-2.24707 5.99121z"/><path d="m58.51605 55.50057h-53c-1.38071 0-2.5-1.11929-2.5-2.5s1.11929-2.5 2.5-2.5h53c3.2805.0772 3.31076 4.91404 0 5z"/></g><path d="m58.51605 56.50057h-53c-1.92969 0-3.5-1.57031-3.5-3.5s1.57031-3.5 3.5-3.5h53c4.60949.14047 4.63823 6.84957 0 7zm-53-5c-1.95276.02965-1.98613 2.9634.00008 2.99999-.00008 0 52.99992 0 52.99992 0 .82715 0 1.5-.67285 1.5-1.5s-.67285-1.5-1.5-1.5h-53z" fill="#21257c"/><path d="m52.17578 50.50057h-6.31947c-1.04018 0-1.90671-.79732-1.99309-1.83391l-.66667-8c-.09717-1.16604.82301-2.16609 1.99309-2.16609h7.6528c1.17008 0 2.09026 1.00005 1.99309 2.16609l-.66667 8c-.08638 1.03658-.95291 1.83391-1.99309 1.83391z" fill="#e6f3ff"/><path d="m52.1762 51.50057h-6.32031c-1.54785 0-2.86133-1.20898-2.98926-2.75098 0 0-.66602-8-.66602-8-.17869-1.69502 1.28503-3.28559 2.98929-3.24899-.00003-.00003 7.65231-.00003 7.65231-.00003.83691 0 1.6416.35352 2.20801.96973.56641.61523.85156 1.44629.78125 2.2793l-.66699 8c-.12695 1.54199-1.44043 2.75098-2.98828 2.75098zm-6.98633-12c-.56888-.01272-1.05751.51656-.99706 1.08302-.00001 0 .66698 7.99999.66698 7.99999.04395.52344.47168.91699.99609.91699h6.32031c.52441 0 .95215-.39355.99512-.91699l.66797-8c.06003-.56613-.4278-1.09606-.99708-1.083h-7.65233z" fill="#21257c"/><path d="m47.39593 39.50057c-.59106.00356-1.06401-.52263-.99511-1.11035.04199-.37793 1.08789-9.34082 6.18066-16.4707.32129-.44824.94629-.55273 1.39453-.23242.44922.32031.55371.94531.23242 1.39453-4.79297 6.71094-5.80957 15.44238-5.81934 15.5293-.05664.51172-.49023.88965-.99316.88965z" fill="#21257c"/><path d="m19.86294 36.04837v-2.54582h4.54581s0 2.54582 0 2.54582c.03492 2.69963-4.58375 2.68068-4.54581 0z" fill="#e6f3ff"/><path d="m22.40863 39.04842c-1.82815.21256-3.56075-1.09953-3.54587-3.00006-.00003.00006-.00003-2.54584-.00003-2.54584 0-.55273.44727-1 1-1h4.5459c.55273 0 1 .44727 1 1v2.5459c0 1.6543-1.3457 3-3 3zm-1.5459-4.5459v1.5459c0 .55176.44824 1 1 1h.5459c.55176 0 1-.44824 1-1v-1.5459z" fill="#21257c"/><path d="m9.63486 21.00156c0-6.90411 5.59688-12.50099 12.50099-12.50099 16.58232.65846 16.57759 24.34602-.00011 25.002-6.904-.00002-12.50088-5.5969-12.50088-12.50101z" fill="#e6f3ff"/><path d="m22.13616 34.50253c-7.44434 0-13.50098-6.05664-13.50098-13.50098.7418-17.91085 26.26289-17.90564 27.00198.0001-.00003 7.44423-6.05667 13.50087-13.501 13.50087zm0-25.00195c-6.3418 0-11.50098 5.15918-11.50098 11.50098.63155 15.25765 22.37273 15.25321 23.00197-.00009-.00002-6.34171-5.1592-11.50089-11.501-11.50089z" fill="#21257c"/></svg>