<svg id="Layer_1" viewBox="0 0 512 512" xmlns="http://www.w3.org/2000/svg" data-name="Layer 1"><circle cx="240.67" cy="295.966" fill="#a1d7fe" r="17.602"/><path d="m81.867 174.242c13.004 0 23.584-10.58 23.584-23.583s-10.58-23.583-23.584-23.583-23.583 10.579-23.583 23.583 10.579 23.583 23.583 23.583z" fill="#a1d7fe"/><path d="m442.741 128.273 35.804-84.718-62.029 59.405z" fill="#a1d7fe"/><path d="m391.771 109.999 6.245-11.008c.388-.684.878-1.29 1.434-1.821l-.009-.009 45.294-43.378-57.02 33.948 4.056 22.269z" fill="#a1d7fe"/><path d="m419.091 50.428-50.662 19.115 10.085 5.043z" fill="#a1d7fe"/><g fill="#007ce7"><path d="m26.352 334.183c1.977 0 3.976-.268 5.929-.795l-10.18 148.025c-1.119 16.274 10.408 26.136 22.373 27.468.889.099 1.784.148 2.684.148 10.385 0 21.124-6.612 23.231-20.286l12.636-81.982 12.638 81.982c2.029 13.168 12.622 21.343 25.738 19.886 11.749-1.307 23.646-11.29 22.551-27.215l-11.913-173.187v-60.529c0-9.281 3.192-16.981 9.759-23.541l67.134-67.06c10.867-10.855 8.544-25.475.84-33.72-7.521-8.048-20.983-11.084-32.164-1.315l-59.751 52.215c-3.061 2.675-6.32 4.679-9.817 6.042 8.217-7.258 13.413-17.861 13.413-29.661 0-21.826-17.758-39.583-39.584-39.583s-39.583 17.757-39.583 39.583c0 13.039 6.34 24.622 16.095 31.838h-7.116c-26.612 0-48.264 21.651-48.264 48.264v77.74c0 9.639 3.845 15.591 7.07 18.887 4.29 4.382 10.072 6.796 16.281 6.796zm31.933-183.524c0-13.004 10.579-23.583 23.583-23.583s23.584 10.579 23.584 23.583-10.58 23.583-23.584 23.583-23.583-10.58-23.583-23.583zm-39.284 80.102c0-17.791 14.474-32.264 32.264-32.264h44.697c12.273 0 23.183-4.095 32.424-12.171l59.751-52.215c4.849-4.239 8.57-1.279 9.944.191.545.583 5.164 5.862-.456 11.476l-67.134 67.06c-9.59 9.579-14.452 21.308-14.452 34.861v60.803c0 .183.006.366.019.549l11.932 173.461c.501 7.275-5.018 9.844-8.356 10.216-2.125.235-7.154.082-8.157-6.421l-20.545-133.278c-.602-3.901-3.959-6.781-7.906-6.781s-7.306 2.88-7.906 6.781l-20.541 133.278c-1.04 6.746-6.18 6.916-8.333 6.674-4.074-.453-8.662-3.467-8.18-10.468l11.679-169.828c.176-1.335.269-2.729.269-4.182v-71.989c0-4.418-3.582-8-8-8s-8 3.582-8 8v71.711l-.189 2.76c-.345 2.127-1.152 3.868-2.388 5.11-1.34 1.348-3.145 2.09-5.082 2.09-3.554 0-7.352-2.543-7.352-9.683v-77.74z"/><path d="m306.116 397.819v-36.921c0-22.408-18.23-40.638-40.639-40.638h-1.631c6.415-6.123 10.425-14.746 10.425-24.294 0-18.528-15.073-33.602-33.602-33.602s-33.602 15.074-33.602 33.602c0 9.547 4.009 18.171 10.424 24.294h-1.629c-22.408 0-40.639 18.23-40.639 40.638v36.921c0 8.089 3.447 13.083 6.339 15.848 3.733 3.57 8.729 5.536 14.068 5.536 1.209 0 2.427-.108 3.635-.324l-3.324 64.551c-.787 15.287 9.736 24.365 20.539 25.432.698.069 1.403.104 2.11.104 9.794 0 20.042-6.635 22.029-20.209l.05-.34.049.34c2.131 14.554 13.764 21.131 24.139 20.106 10.803-1.066 21.327-10.145 20.54-25.432l-3.324-64.535c1.188.204 2.403.308 3.634.308 10.142 0 20.408-7.345 20.408-21.384zm-65.446-119.455c9.706 0 17.602 7.896 17.602 17.602s-7.896 17.602-17.602 17.602-17.602-7.896-17.602-17.602 7.896-17.602 17.602-17.602zm49.446 119.455c0 4.684-2.762 5.384-4.408 5.384-1.019 0-4.155-.328-4.66-4.251l-.069-1.338v-32.053c0-4.418-3.582-8-8-8s-8 3.582-8 8v32.258c0 .795.037 1.581.11 2.354l4.331 84.082c.306 5.935-3.113 8.389-6.133 8.687-1.715.168-5.803-.127-6.735-6.501l-7.966-54.412c-.575-3.929-3.945-6.841-7.916-6.841s-7.341 2.913-7.916 6.841l-7.965 54.412c-.932 6.375-5.015 6.669-6.736 6.5-3.02-.298-6.438-2.752-6.132-8.686l4.324-83.968c.076-.798.116-1.622.116-2.468v-32.258c0-4.418-3.582-8-8-8s-8 3.582-8 8v32.054l-.069 1.337c-.504 3.925-3.641 4.252-4.66 4.252-1.646 0-4.407-.7-4.407-5.384v-36.921c0-13.585 11.053-24.638 24.639-24.638h49.614c13.586 0 24.639 11.052 24.639 24.638v36.921z"/><path d="m433.731 303.506c2.812-3.407 2.332-8.449-1.075-11.262-3.406-2.813-8.449-2.332-11.263 1.075-15.855 19.201-41.739 33.241-71.014 38.519-4.348.784-7.237 4.944-6.453 9.292.697 3.869 4.067 6.582 7.864 6.582.471 0 .948-.042 1.429-.128 32.939-5.939 62.284-22.005 80.512-44.078z"/><path d="m344.91 75.672 26.784 13.393 8.286 45.491c.603 3.312 3.214 5.891 6.533 6.454 3.315.563 6.635-1.013 8.295-3.94l12.032-21.21 33.176 32.021c1.506 1.454 3.503 2.244 5.556 2.244.532 0 1.069-.053 1.602-.162 2.584-.528 4.741-2.295 5.768-4.724l55.427-131.153c1.245-2.947.615-6.354-1.603-8.66-2.219-2.306-5.596-3.07-8.591-1.939l-152.512 57.545c-2.975 1.122-5.002 3.899-5.165 7.074s1.568 6.145 4.411 7.566zm97.831 52.601-26.225-25.313 62.029-59.406-35.803 84.718zm-43.301-31.113.009.009c-.555.532-1.046 1.137-1.434 1.821l-6.245 11.008-4.056-22.269 57.02-33.948-45.294 43.378zm19.65-46.732-40.576 24.158-10.085-5.043 50.662-19.115z"/><path d="m506.952 227.194c-2.351-2.618-6.138-3.394-9.329-1.908l-77.299 35.993c-3.104 1.446-4.944 4.707-4.577 8.112.368 3.405 2.863 6.198 6.205 6.946l23.729 5.318 1.647 27.021c.213 3.495 2.675 6.445 6.074 7.282.637.156 1.277.232 1.912.232 2.755 0 5.376-1.429 6.847-3.865l45.687-75.652c1.82-3.013 1.456-6.861-.896-9.48zm-55.917 39.265-2.653-.595 6.93-3.227-4.276 3.821zm10.701 15.621-.215-3.532 5.102-4.559-4.886 8.091z"/><path d="m340.444 198.963c1.546 0 3.108-.447 4.483-1.38 17.12-11.611 30.783-26.162 39.514-42.079 2.124-3.874.706-8.737-3.168-10.861-3.872-2.124-8.736-.707-10.861 3.167-7.516 13.705-19.434 26.337-34.465 36.531-3.656 2.48-4.61 7.455-2.131 11.111 1.547 2.281 4.065 3.511 6.628 3.511z"/><path d="m313.12 143.601c.678 0 1.366-.087 2.053-.269 16.619-4.4 31.127-13.824 39.804-25.855 2.585-3.583 1.774-8.583-1.809-11.168-3.586-2.586-8.584-1.775-11.168 1.809-6.55 9.081-17.82 16.279-30.923 19.748-4.271 1.131-6.816 5.51-5.686 9.781.949 3.585 4.187 5.954 7.729 5.954z"/><path d="m221.224 181.7c12.121 3.748 25.059 5.528 38.171 5.528 40.973 0 83.567-17.402 107.623-46.535 2.812-3.407 2.332-8.449-1.075-11.262-3.406-2.814-8.449-2.332-11.263 1.075-27.462 33.257-85.21 49.364-128.729 35.908-4.22-1.305-8.701 1.058-10.006 5.28-1.306 4.221 1.059 8.701 5.279 10.006z"/></g></svg>