<svg id="Layer_1" enable-background="new 0 0 500 500" viewBox="0 0 500 500" xmlns="http://www.w3.org/2000/svg"><path clip-rule="evenodd" d="m456.129 452.066c0 2.885-2.35 5.24-5.235 5.24h-70.104c-2.885 0-5.235-2.355-5.235-5.24v-122.763c0-6.182-12.639-44.725-18.455-54.501-1.673-2.812-5.517-7.709-12.188-16.116-6.801-8.588-15.271-19.277-21.999-28.902-8.96-12.836-10.52-17.733-10.785-19.142 1.904-3.443 5.973-6.232 10.036-6.863 1.837-.287 4.407-.237 6.215 1.628l61.274 62.993c-1.643 23.919 18.212 43.744 41.383 42.544l12.527 12.882c7.793 7.99 12.566 13.287 12.566 21.03zm-145.748-126.921c6.418-9.54 19.345-28.744 31.747-48.342l-14.854-18.922-28.71 35.376c-7.489 9.213-14.448 16.358-21.131 21.582-7.275 7.787-17.62 12.662-29.099 12.662-13.8 0-25.988-7.061-33.139-17.762-4.305-4.012-8.712-8.802-13.259-14.38l-29.426-36.154-15.04 19.193c11.946 18.584 24.281 36.774 30.412 45.812 2.107 3.116 3.494 5.167 4.119 6.125 5.669 8.661 17.412 41.394 17.412 46.894v76.675c0 1.809 2.062 3.404 4.418 3.404h71.242c2.361 0 4.423-1.595 4.423-3.404v-76.675c0-5.5 11.743-38.233 17.401-46.894.554-.846 1.771-2.638 3.484-5.19zm-185.125 4.158v122.763c0 2.885-2.355 5.24-5.246 5.24h-70.093c-2.885 0-5.24-2.355-5.24-5.24v-107.21c0-7.743 4.778-13.039 12.56-21.03l12.51-12.853c.197 0 .406.017.603.017 22.733 0 40.934-19.205 39.811-41.563l62.272-64.019c1.809-1.865 4.378-1.916 6.204-1.628 4.074.631 8.131 3.42 10.041 6.863-.265 1.409-1.82 6.306-10.791 19.136-6.722 9.63-15.192 20.32-21.993 28.907-6.666 8.407-10.515 13.304-12.188 16.116-5.805 9.777-18.45 48.32-18.45 54.501zm-81.38-58.169c0 14.606 11.873 26.479 26.473 26.479s26.479-11.873 26.479-26.479c0-14.6-11.879-26.473-26.479-26.473s-26.473 11.873-26.473 26.473zm40.352-60.215h64.182l14.437-14.837c4.514-4.649 10.858-6.61 17.84-5.522 8.391 1.307 16.201 6.852 20.004 14.178 1.076 1.775 1.55 3.804 1.414 6.182h17.395v-41.862h-7.196c-14.2 0-25.769-11.563-25.769-25.769 0-14.211 11.569-25.769 25.769-25.769h7.196v-41.862h-41.862v7.184c0 14.211-11.563 25.769-25.769 25.769-14.211 0-25.78-11.557-25.78-25.769v-7.184h-41.861zm164.107 50.252c14.606 0 26.484 11.879 26.484 26.473 0 6.587-2.423 12.617-6.418 17.254-6.914 5.218-13.208 7.731-19.153 7.731-.011 0-.017 0-.017 0-7.331 0-15.034-3.691-23.627-11.439-2.372-3.973-3.742-8.599-3.742-13.546 0-14.594 11.878-26.473 26.473-26.473zm32.976-50.252h17.384c-.13-2.378.349-4.407 1.42-6.182 3.809-7.325 11.619-12.87 19.998-14.178 6.993-1.088 13.332.873 17.852 5.522l14.426 14.837h64.182v-135.26h-48.551c-3.691 0-6.683-2.998-6.683-6.689v-13.885c0-6.829-5.556-12.391-12.397-12.391-6.835 0-12.391 5.562-12.391 12.391v13.885c0 3.691-2.998 6.689-6.689 6.689h-48.551v48.551c0 3.691-2.998 6.683-6.689 6.683h-13.879c-6.835 0-12.397 5.556-12.397 12.397 0 6.83 5.562 12.391 12.397 12.391h13.879c3.691 0 6.689 2.998 6.689 6.689zm148.092 33.742c-14.606 0-26.479 11.873-26.479 26.473 0 14.606 11.873 26.479 26.479 26.479 14.595 0 26.473-11.873 26.473-26.479 0-14.6-11.879-26.473-26.473-26.473zm23.74 69.834-7.01-7.207c13.642-6.339 23.12-20.151 23.12-36.154 0-21.971-17.88-39.85-39.85-39.85-15.614 0-29.144 9.022-35.681 22.123l-28.321-29.11h57.86c3.691 0 6.689-2.998 6.689-6.689v-148.639c0-3.702-2.998-6.689-6.689-6.689h-48.551v-7.196c0-14.211-11.551-25.768-25.768-25.768-14.211 0-25.769 11.557-25.769 25.768v7.196h-48.551c-3.691 0-6.683 2.986-6.683 6.689v48.551h-7.196c-14.206 0-25.769 11.558-25.769 25.769 0 14.206 11.563 25.769 25.769 25.769h7.196v48.551c0 3.691 2.992 6.689 6.683 6.689h28.907c3.33 5.979 8.402 13.372 15.372 22.67l-30.812 37.957c-1.403-20.703-18.691-37.123-39.754-37.123-20.263 0-37.039 15.209-39.518 34.818l-27.921-34.306c7.495-9.94 12.898-17.75 16.375-24.016h28.918c3.691 0 6.689-2.998 6.689-6.689v-55.239c0-3.691-2.998-6.689-6.689-6.689h-13.884c-6.83 0-12.391-5.562-12.391-12.391 0-6.841 5.562-12.397 12.391-12.397h13.884c3.691 0 6.689-2.992 6.689-6.683v-55.241c0-3.702-2.998-6.689-6.689-6.689h-55.239c-3.697 0-6.689 2.986-6.689 6.689v13.873c0 6.83-5.562 12.397-12.391 12.397-6.841 0-12.403-5.567-12.403-12.397v-13.873c0-3.702-2.986-6.689-6.689-6.689h-55.233c-3.691 0-6.689 2.986-6.689 6.689v148.639c0 3.691 2.998 6.689 6.689 6.689h57.854l-29.02 29.831c-6.396-13.49-20.134-22.844-36.03-22.844-21.976 0-39.85 17.88-39.85 39.85 0 16.291 9.816 30.31 23.853 36.492l-6.689 6.869c-8.041 8.244-16.364 16.775-16.364 30.361v107.211c0 10.267 8.357 18.618 18.618 18.618h70.093c10.261 0 18.618-8.351 18.618-18.618v-122.589c.462-3.973 6.627-23.875 11.839-37.275 10.616 16.319 20.9 31.499 26.343 39.518 1.989 2.942 3.432 5.066 4.001 5.939 4.615 7.044 14.448 34.948 15.231 39.845v76.399c0 9.252 7.979 16.781 17.79 16.781h71.242c9.816 0 17.795-7.528 17.795-16.781v-76.399c.783-4.897 10.622-32.801 15.231-39.845.535-.823 1.713-2.57 3.375-5.049 5.781-8.588 16.809-24.974 28.034-42.505 5.359 13.332 12.172 35.185 12.673 39.371v122.588c0 10.267 8.345 18.618 18.606 18.618h70.104c10.261 0 18.606-8.351 18.606-18.618v-107.209c.003-13.586-8.314-22.117-16.355-30.361z" fill-rule="evenodd"/></svg>