<svg clip-rule="evenodd" fill-rule="evenodd" stroke-linejoin="round" stroke-miterlimit="2" viewBox="0 0 510 510" xmlns="http://www.w3.org/2000/svg" id="fi_16996044"><path d="m114.124 80.295c25.325 10.125 43.851 33.625 46.858 61.763.241 2.257-.488 4.51-2.005 6.198-1.518 1.688-3.68 2.652-5.95 2.652h-133.607c-2.27 0-4.434-.965-5.951-2.653-1.517-1.689-2.245-3.944-2.003-6.201 3.022-28.138 21.553-51.637 46.872-61.76-8.627-7.698-14.072-18.894-14.072-31.319 0-23.114 18.844-41.975 41.958-41.975 23.135 0 41.975 18.862 41.975 41.975 0 12.425-5.445 23.622-14.075 31.32zm-27.9 10.655c-27.418 0-50.483 18.649-57.209 43.958h114.422c-6.713-25.309-29.782-43.958-57.213-43.958zm0-16c14.316 0 25.975-11.672 25.975-25.975s-11.659-25.975-25.975-25.975c-14.302 0-25.958 11.673-25.958 25.975s11.656 25.975 25.958 25.975zm27.9 357.437c25.325 10.125 43.851 33.625 46.858 61.763.241 2.257-.488 4.51-2.005 6.198-1.518 1.688-3.68 2.652-5.95 2.652h-133.607c-2.27 0-4.434-.965-5.951-2.654s-2.245-3.943-2.003-6.2c3.022-28.139 21.553-51.637 46.872-61.76-8.627-7.698-14.072-18.894-14.072-31.319 0-23.114 18.844-41.975 41.958-41.975 23.135 0 41.975 18.862 41.975 41.975 0 12.425-5.445 23.622-14.075 31.32zm-27.9 10.655c-27.418 0-50.483 18.649-57.209 43.958h114.422c-6.713-25.309-29.782-43.958-57.213-43.958zm0-16c14.316 0 25.975-11.672 25.975-25.975s-11.659-25.975-25.975-25.975c-14.302 0-25.958 11.673-25.958 25.975 0 14.301 11.656 25.975 25.958 25.975zm365.453-346.747c25.325 10.125 43.851 33.625 46.857 61.763.242 2.257-.487 4.51-2.005 6.198-1.517 1.688-3.68 2.652-5.949 2.652h-133.607c-2.27 0-4.434-.965-5.951-2.653-1.517-1.689-2.246-3.944-2.003-6.201 3.022-28.138 21.552-51.637 46.872-61.76-8.627-7.698-14.072-18.894-14.072-31.319 0-23.114 18.843-41.975 41.957-41.975 23.135 0 41.975 18.862 41.975 41.975 0 12.425-5.445 23.622-14.074 31.32zm-27.901 10.655c-27.417 0-50.482 18.649-57.208 43.958h114.422c-6.714-25.309-29.782-43.958-57.214-43.958zm0-16c14.317 0 25.975-11.672 25.975-25.975s-11.658-25.975-25.975-25.975c-14.301 0-25.957 11.673-25.957 25.975s11.656 25.975 25.957 25.975zm27.901 357.437c25.325 10.125 43.851 33.625 46.857 61.763.242 2.257-.487 4.51-2.005 6.198-1.517 1.688-3.68 2.652-5.949 2.652h-133.607c-2.27 0-4.434-.965-5.951-2.654s-2.246-3.943-2.003-6.2c3.022-28.139 21.552-51.637 46.872-61.76-8.627-7.698-14.072-18.894-14.072-31.319 0-23.114 18.843-41.975 41.957-41.975 23.135 0 41.975 18.862 41.975 41.975 0 12.425-5.445 23.622-14.074 31.32zm-27.901 10.655c-27.417 0-50.482 18.649-57.208 43.958h114.422c-6.714-25.309-29.782-43.958-57.214-43.958zm0-16c14.317 0 25.975-11.672 25.975-25.975s-11.658-25.975-25.975-25.975c-14.301 0-25.957 11.673-25.957 25.975 0 14.301 11.656 25.975 25.957 25.975zm-337.534-88.904c0 4.415-3.585 8-8 8s-8-3.585-8-8v-164.621c0-4.416 3.585-8 8-8s8 3.584 8 8zm251.692 111.498c4.416 0 8 3.585 8 8 0 4.416-3.584 8-8 8h-166.968c-4.415 0-8-3.584-8-8 0-4.415 3.585-8 8-8zm85.824-275.97c0-4.416 3.585-8 8-8s8 3.584 8 8v164.472c0 4.415-3.585 8-8 8s-8-3.585-8-8zm-252.792-82.545c-4.415 0-8-3.585-8-8s3.585-8 8-8h166.968c4.416 0 8 3.585 8 8s-3.584 8-8 8zm84.034 54.003c69.161 0 125.255 56.094 125.255 125.255s-56.094 125.254-125.255 125.254-125.255-56.093-125.255-125.254 56.094-125.255 125.255-125.255zm-82.952 54.159c-14.77 17.217-24.275 39.082-26.014 63.096h32.485c1.024-19.274 5.842-37.568 13.718-54.145-7.156-2.513-13.933-5.497-20.189-8.951zm50.554-33.273c-14.412 4.471-27.548 11.846-38.724 21.44 5.054 2.532 10.437 4.747 16.069 6.645 6.373-10.283 13.996-19.717 22.655-28.085zm103.532 21.451c-11.169-9.592-24.297-16.966-38.701-21.44 8.652 8.365 16.271 17.795 22.644 28.074 5.626-1.896 11.006-4.107 16.057-6.634zm37.832 74.918c-1.738-24.008-11.239-45.868-26.003-63.082-6.252 3.447-13.024 6.426-20.173 8.936 7.881 16.577 12.705 34.871 13.731 54.146zm-26.026 79.109c14.777-17.219 24.287-39.089 26.026-63.109h-32.468c-1.062 19.076-5.799 37.422-13.727 54.18 7.148 2.507 13.917 5.484 20.169 8.929zm-50.39 33.212c14.345-4.473 27.422-11.825 38.555-21.378-5.04-2.519-10.407-4.725-16.019-6.616-6.284 10.174-13.839 19.582-22.536 27.994zm-103.643-21.368c11.14 9.556 24.225 16.908 38.578 21.379-8.704-8.415-16.263-17.827-22.548-28.005-5.617 1.893-10.987 4.102-16.03 6.626zm-37.873-74.953c1.74 24.026 11.254 45.901 26.038 63.122 6.254-3.451 13.029-6.432 20.183-8.943-7.923-16.757-12.652-35.103-13.713-54.179zm61.766-65.554c-7.536 15.09-12.196 31.849-13.255 49.554h52.455v-44.227c-13.403-.506-26.68-2.281-39.2-5.327zm39.2-46.53c-12.059 8.879-22.526 19.801-30.884 32.249 9.951 2.17 20.37 3.475 30.884 3.914zm46.906 32.247c-8.367-12.458-18.844-23.387-30.906-32.27v36.187c10.521-.439 20.947-1.745 30.906-3.917zm21.589 63.837c-1.061-17.706-5.728-34.466-13.269-49.556-12.53 3.048-25.816 4.824-39.226 5.329v44.227zm-13.29 65.59c7.588-15.26 12.168-32.071 13.265-49.59h-52.47v44.266c13.403.505 26.681 2.279 39.205 5.324zm-39.205 46.562c12.258-9.009 22.667-19.951 30.916-32.273-9.962-2.174-20.392-3.48-30.916-3.919zm-46.893-32.275c8.24 12.312 18.639 23.247 30.893 32.252v-36.169c-10.518.439-20.94 1.745-30.893 3.917zm-21.537-63.877c1.095 17.518 5.668 34.329 13.251 49.588 12.514-3.042 25.784-4.816 39.179-5.321v-44.267z"></path></svg>