<svg id="fi_3981112" height="512" viewBox="0 0 64 64" width="512" xmlns="http://www.w3.org/2000/svg" data-name="Layer 1"><path d="m2 63h24a.99943.99943 0 0 0 1-1v-6a4.99022 4.99022 0 0 0 -3.47491-4.73688 4.45494 4.45494 0 0 0 .97491-2.76312 4.5 4.5 0 0 0 -9 0 4.45494 4.45494 0 0 0 .97491 2.76312 4.99243 4.99243 0 0 0 -2.47491 1.76782 4.99243 4.99243 0 0 0 -2.47491-1.76782 4.45494 4.45494 0 0 0 .97491-2.76312 4.5 4.5 0 0 0 -9 0 4.45494 4.45494 0 0 0 .97491 2.76312 4.99022 4.99022 0 0 0 -3.47491 4.73688v6a.99943.99943 0 0 0 1 1zm18-17a2.5 2.5 0 1 1 -2.5 2.5 2.50231 2.50231 0 0 1 2.5-2.5zm-5 10a3.00328 3.00328 0 0 1 3-3h4a3.00328 3.00328 0 0 1 3 3v5h-10zm-7-10a2.5 2.5 0 1 1 -2.5 2.5 2.50231 2.50231 0 0 1 2.5-2.5zm-5 10a3.00328 3.00328 0 0 1 3-3h4a3.00328 3.00328 0 0 1 3 3v5h-10z"></path><path d="m59.52509 51.26312a4.45494 4.45494 0 0 0 .97491-2.76312 4.5 4.5 0 0 0 -9 0 4.45494 4.45494 0 0 0 .97491 2.76312 4.99022 4.99022 0 0 0 -3.47491 4.73688v6a.99943.99943 0 0 0 1 1h12a.99943.99943 0 0 0 1-1v-6a4.99022 4.99022 0 0 0 -3.47491-4.73688zm-3.52509-5.26312a2.5 2.5 0 1 1 -2.5 2.5 2.50231 2.50231 0 0 1 2.5-2.5zm5 15h-10v-5a3.00328 3.00328 0 0 1 3-3h4a3.00328 3.00328 0 0 1 3 3z"></path><path d="m61 32v-30a.99943.99943 0 0 0 -1-1h-56a.99943.99943 0 0 0 -1 1v30a.99943.99943 0 0 0 1 1h56a.99943.99943 0 0 0 1-1zm-2-1h-54v-28h54z"></path><path d="m51 43v-6a2.0026 2.0026 0 0 0 -2-2h-8a2.0026 2.0026 0 0 0 -2 2v6a2.0026 2.0026 0 0 0 2 2h1.64941l4.72559 3.78125a.99994.99994 0 0 0 1.59473-1.02344l-.68848-2.75781h.71875a2.0026 2.0026 0 0 0 2-2zm-4 0a.9997.9997 0 0 0 -.96973 1.24219l.28125 1.126-2.68652-2.14944a1.00185 1.00185 0 0 0 -.625-.21875h-2v-6h8l.002 6z"></path><path d="m27.46 48.8418a1.0016 1.0016 0 0 0 1.165-.06055l4.72559-3.78125h1.64941a2.0026 2.0026 0 0 0 2-2v-6a2.0026 2.0026 0 0 0 -2-2h-8a2.0026 2.0026 0 0 0 -2 2v6a2.0026 2.0026 0 0 0 2 2h.71875l-.68848 2.75781a.99849.99849 0 0 0 .42973 1.08399zm-.46-5.8418v-6h8v6h-2a1.00185 1.00185 0 0 0 -.625.21875l-2.68652 2.14941.28125-1.126a.9997.9997 0 0 0 -.96973-1.24216z"></path><path d="m42.11914 12.78906a5.94771 5.94771 0 0 0 2.38086 6.06055v2.15039a3.00328 3.00328 0 0 0 3 3h1a3.00328 3.00328 0 0 0 3-3v-2.15234a5.993 5.993 0 1 0 -9.38086-6.0586zm6.38086 9.21094h-1a1.00067 1.00067 0 0 1 -1-1h3a1.00067 1.00067 0 0 1 -1 1zm-4.419-8.82129a3.97733 3.97733 0 0 1 3.041-3.08691 4.31355 4.31355 0 0 1 .88574-.09278 3.947 3.947 0 0 1 2.51172.89356 3.97844 3.97844 0 0 1 -.52246 6.5498.99926.99926 0 0 0 -.49707.86426v.69336h-3v-.69336a.99926.99926 0 0 0 -.49707-.86426 3.979 3.979 0 0 1 -1.92181-4.26367z"></path><path d="m47 5h2v2h-2z"></path><path d="m55 12h2v2h-2z"></path><path d="m39 12h2v2h-2z"></path><path d="m41.343 6.707h2v2h-2z" transform="matrix(.707 -.707 .707 .707 6.952 32.198)"></path><path d="m52.657 6.707h2v2h-2z" transform="matrix(.707 -.707 .707 .707 10.266 40.199)"></path><path d="m16.12012 22.96h.05273a4.00681 4.00681 0 0 0 2.7461-6.876 4.02719 4.02719 0 0 0 -2.84766-1.13769 4.007 4.007 0 0 0 .04883 8.01369zm-1.43555-5.40723a1.99154 1.99154 0 0 1 1.41211-.60644h.02732a2.00692 2.00692 0 0 1 .02346 4.01367 2.14311 2.14311 0 0 1 -1.42578-.56934 2.00653 2.00653 0 0 1 -.03711-2.83789z"></path><path d="m7.17773 21.00879a1.00032 1.00032 0 0 0 .09961.75879l2 3.46484a1.00144 1.00144 0 0 0 .60743.46582 1.02 1.02 0 0 0 .75878-.09961l1.42481-.86133a6.57933 6.57933 0 0 0 1.00391.57911v1.68359a.99942.99942 0 0 0 1 1h4a.99943.99943 0 0 0 1-1l-.03907-1.66309a6.60977 6.60977 0 0 0 1.00977-.58007l1.457.84179a1.01824 1.01824 0 0 0 .75879.09961 1.00139 1.00139 0 0 0 .60742-.46582l2-3.46484a1.00081 1.00081 0 0 0 -.36618-1.36621l-1.45215-.83789q.0249-.28419.02442-.56348 0-.27978-.02442-.56348l1.45215-.83789a1.00081 1.00081 0 0 0 .36621-1.36621l-2-3.46484a1.00081 1.00081 0 0 0 -1.36621-.36621l-1.4248.86133a6.61958 6.61958 0 0 0 -1.00293-.57911v-1.68359a.99943.99943 0 0 0 -1-1h-4a.99942.99942 0 0 0 -1 1l.03808 1.66309a6.60966 6.60966 0 0 0 -1.00976.58007l-1.457-.84179a1.00082 1.00082 0 0 0 -1.36621.36621l-2 3.46484a1.00081 1.00081 0 0 0 .36621 1.36621l1.45313.83789c-.0166.19043-.02441.37891-.02441.56348s.00781.373.02441.56348l-1.45313.83789a1.00139 1.00139 0 0 0 -.46586.60742zm3.98145-1.09473a4.85018 4.85018 0 0 1 0-1.82812.99958.99958 0 0 0 -.4834-1.04688l-1.166-.67285 1-1.73242.59179.34277a1.97746 1.97746 0 0 0 2.10742-.07129 5.09852 5.09852 0 0 1 .7461-.42968 1.97412 1.97412 0 0 0 1.11719-1.792v-.68359h2v.68359a1.97748 1.97748 0 0 0 1.11914 1.79395 4.99482 4.99482 0 0 1 .74121.42676 1.97663 1.97663 0 0 0 2.11035.07129l.59082-.3418 1 1.73242-1.166.67285a.99957.99957 0 0 0 -.48339 1.04688 4.79708 4.79708 0 0 1 0 1.82812.99957.99957 0 0 0 .48339 1.04688l1.166.67285-1 1.73242-.59082-.3418a1.97537 1.97537 0 0 0 -2.1084.07032 5.09894 5.09894 0 0 1 -.74609.42968 1.97492 1.97492 0 0 0 -1.11621 1.792v.68359h-2v-.68359a1.97668 1.97668 0 0 0 -1.12012-1.794 4.99381 4.99381 0 0 1 -.74121-.42676 1.9805 1.9805 0 0 0 -2.11035-.07129l-.59082.3418-1-1.73242 1.166-.67285a.99958.99958 0 0 0 .4834-1.04683z"></path><path d="m47 26h2v2h-2z"></path><path d="m43 26h2v2h-2z"></path><path d="m39 26h2v2h-2z"></path><path d="m35 26h2v2h-2z"></path><path d="m35 22h2v2h-2z"></path><path d="m35 18h2v2h-2z"></path><path d="m31 18h2v2h-2z"></path><path d="m27 18h2v2h-2z"></path></svg>